<?xml version="1.0" encoding="UTF-8" standalone="no"?>
<!DOCTYPE svg PUBLIC "-//W3C//DTD SVG 1.1//EN" "http://www.w3.org/Graphics/SVG/1.1/DTD/svg11.dtd">
<!--Generated by Intaglio, www.PurgatoryDesign.com-->
<svg version="1.1" viewBox="0,0,734,576" width="734" height="576" xmlns="http://www.w3.org/2000/svg" xmlns:xlink="http://www.w3.org/1999/xlink" xmlns:intaglio="http://purgatorydesign.com/namespaces/intaglio" intaglio:grid="36,36,1,1,0.5,#9999bf,1,0,0,0" intaglio:guides="0.8,#f0f,1,1"><path fill="#fffffe" stroke="#000100" d="M252.323,49.2422 L471,49.2422 L471,81.7441 L252.323,81.7441 L252.323,49.2422 Z"/><text font-family="Times New Roman" font-size="18" transform="matrix(1,0,0,1,315.396,71.606)" xml:space="preserve"><tspan>Collect Data</tspan></text><path fill="#fffffe" stroke="#000100" d="M470.275,139.993 C470.275,139.993,415.606,156.244,415.606,156.244 C415.606,156.244,306.267,156.244,306.267,156.244 C306.267,156.244,251.598,139.993,251.598,139.993 C251.598,139.993,306.267,123.742,306.267,123.742 C306.267,123.742,415.606,123.742,415.606,123.742 C415.606,123.742,470.275,139.993,470.275,139.993 Z"/><text font-family="Times New Roman" font-size="18" transform="matrix(1,0,0,1,303.096,146.106)" xml:space="preserve"><tspan>Check the Fluid</tspan></text><path fill="#fffffe" stroke="#000100" d="M252.323,198.242 L471,198.242 L471,230.744 L252.323,230.744 L252.323,198.242 Z"/><text font-family="Times New Roman" font-size="18" transform="matrix(1,0,0,1,334.134,220.619)" xml:space="preserve"><tspan>Find u1</tspan></text><path fill="#fffffe" stroke="#000100" d="M252.323,272.742 L471,272.742 L471,305.244 L252.323,305.244 L252.323,272.742 Z"/><text font-family="Times New Roman" font-size="18" transform="matrix(1,0,0,1,333.409,295.119)" xml:space="preserve"><tspan>Find u2</tspan></text><path fill="#fffffe" stroke="#000100" d="M252.323,347.242 L471,347.242 L471,379.744 L252.323,379.744 L252.323,347.242 Z"/><text font-family="Times New Roman" font-size="18" transform="matrix(1,0,0,1,272.98,367.817)" xml:space="preserve"><tspan>Calculate Specific Work</tspan></text><path fill="#fffffe" stroke="#000100" d="M252.323,421.742 L471,421.742 L471,454.244 L252.323,454.244 L252.323,421.742 Z"/><text font-family="Times New Roman" font-size="18" transform="matrix(1,0,0,1,299.33,442.133)" xml:space="preserve"><tspan>Calculate Energy</tspan></text><path fill="#fffffe" stroke="#000100" d="M252.323,496.242 L471,496.242 L471,528.744 L252.323,528.744 L252.323,496.242 Z"/><text font-family="Times New Roman" font-size="18" transform="matrix(1,0,0,1,319.021,518.606)" xml:space="preserve"><tspan>Calculate R</tspan></text><g><path fill="none" intaglio:arrow-end="1" stroke="#000100" d="M360.936,81.7441 L360.936,114.242" intaglio:d="M360.936,81.7441 L360.936,123.742"/><path fill="#000100" intaglio:omit="yes" d="M364.936,113.742 L360.936,123.742 L356.936,113.742"/></g><g><path fill="none" intaglio:arrow-end="1" stroke="#000100" d="M360.936,156.244 L360.936,188.742" intaglio:d="M360.936,156.244 L360.936,198.242"/><path fill="#000100" intaglio:omit="yes" d="M364.936,188.242 L360.936,198.242 L356.936,188.242"/></g><g><path fill="none" intaglio:arrow-end="1" stroke="#000100" d="M360.936,230.744 L360.936,263.242" intaglio:d="M360.936,230.744 L360.936,272.742"/><path fill="#000100" intaglio:omit="yes" d="M364.936,262.742 L360.936,272.742 L356.936,262.742"/></g><g><path fill="none" intaglio:arrow-end="1" stroke="#000100" d="M360.936,305.244 L361.498,337.744" intaglio:d="M360.936,305.244 L361.662,347.242"/><path fill="#000100" intaglio:omit="yes" d="M365.488,337.175 L361.662,347.242 L357.49,337.313"/></g><g><path fill="none" intaglio:arrow-end="1" stroke="#000100" d="M360.936,379.744 L360.936,412.242" intaglio:d="M360.936,379.744 L360.936,421.742"/><path fill="#000100" intaglio:omit="yes" d="M364.936,411.742 L360.936,421.742 L356.936,411.742"/></g><g><path fill="none" intaglio:arrow-end="1" stroke="#000100" d="M360.936,454.244 L360.936,486.742" intaglio:d="M360.936,454.244 L360.936,496.242"/><path fill="#000100" intaglio:omit="yes" d="M364.936,486.242 L360.936,496.242 L356.936,486.242"/></g><path fill="none" stroke="#000100" d="M470.275,139.993 L541,139.993"/><g><path fill="none" intaglio:arrow-start="1" stroke="#000100" d="M370.799,326.243 L541,326.243" intaglio:d="M361.299,326.243 L541,326.243"/><path fill="#000100" intaglio:omit="yes" d="M371.299,330.243 L361.299,326.243 L371.299,322.243"/></g><path fill="none" stroke="#000100" d="M541,139.993 L541,326.243"/></svg>
