<?xml version="1.0" encoding="UTF-8" standalone="no"?>
<!DOCTYPE svg PUBLIC "-//W3C//DTD SVG 1.1//EN" "http://www.w3.org/Graphics/SVG/1.1/DTD/svg11.dtd">
<!--Generated by Intaglio, www.PurgatoryDesign.com-->
<svg version="1.1" viewBox="0,0,734,576" width="734" height="576" xmlns="http://www.w3.org/2000/svg" xmlns:xlink="http://www.w3.org/1999/xlink" xmlns:intaglio="http://purgatorydesign.com/namespaces/intaglio" intaglio:grid="36,36,1,1,0.5,#9999bf,1,0,0,0" intaglio:guides="0.8,#f0f,1,1" intaglio:ruler="0,5,5,1,144,0,0"><defs><pattern id="600001f79930" width="64" height="64" patternUnits="userSpaceOnUse"><g><path fill="none" stroke="#000" stroke-linecap="square" d="M-8,72 L72,-8"/><path fill="none" stroke="#000" stroke-linecap="square" d="M-8,64 L64,-8"/><path fill="none" stroke="#000" stroke-linecap="square" d="M-8,56 L56,-8"/><path fill="none" stroke="#000" stroke-linecap="square" d="M-8,48 L48,-8"/><path fill="none" stroke="#000" stroke-linecap="square" d="M-8,40 L40,-8"/><path fill="none" stroke="#000" stroke-linecap="square" d="M-8,32 L32,-8"/><path fill="none" stroke="#000" stroke-linecap="square" d="M-8,24 L24,-8"/><path fill="none" stroke="#000" stroke-linecap="square" d="M-8,16 L16,-8"/><path fill="none" stroke="#000" stroke-linecap="square" d="M0,72 L72,0"/><path fill="none" stroke="#000" stroke-linecap="square" d="M8,72 L72,8"/><path fill="none" stroke="#000" stroke-linecap="square" d="M16,72 L72,16"/><path fill="none" stroke="#000" stroke-linecap="square" d="M24,72 L72,24"/><path fill="none" stroke="#000" stroke-linecap="square" d="M32,72 L72,32"/><path fill="none" stroke="#000" stroke-linecap="square" d="M40,72 L72,40"/><path fill="none" stroke="#000" stroke-linecap="square" d="M48,72 L72,48"/><path fill="none" stroke="#000" stroke-linecap="square" d="M-8,8 L8,-8"/><path fill="none" stroke="#000" stroke-linecap="square" d="M56,72 L72,56"/></g></pattern></defs><path fill="#ccc" fill-rule="evenodd" stroke="#000100" d="M627,282.75 L627,282.75 C627,302.77,610.77,319,590.75,319 C570.73,319,554.5,302.77,554.5,282.75 C554.5,281.999,554.523,281.249,554.57,280.5 L626.928,280.5 L626.93,280.5 C626.977,281.249,627,281.999,627,282.75 Z"/><image xlink:href="1.jpeg" width="852" height="480" transform="matrix(0.0842136,0,0,0.0842136,394,429.577)"/><path fill="none" stroke="#000100" d="M627,282.75 C627,302.77,610.77,319,590.75,319 C570.73,319,554.5,302.77,554.5,282.75 C554.5,262.73,570.73,246.5,590.75,246.5 C610.77,246.5,627,262.73,627,282.75 Z"/><path fill="#ccc" d="M226.497,280 L500.503,280 L500.503,280 C502.425,281.923,500.501,284.531,500.5,287.25 C500.5,288.937,500.868,290.103,500.5,291.75 C500.116,293.469,499.192,294.38,498.5,296 C497.987,297.201,497.746,298.042,497.25,299.25 C496.628,300.764,496.383,301.871,495.5,303.25 C494.283,305.151,492.745,305.866,491.501,307.75 C490.531,309.22,490.513,310.559,489.5,312 C488.585,313.302,487.662,313.913,486.5,315 C485.045,316.362,482.5,318.5,482.5,318.5 L244.5,318.5 C244.5,318.5,242.261,316.843,241,315.75 C238.845,313.883,237.274,312.732,235.499,310.5 C233.668,308.197,232.849,306.364,231.5,303.75 C230.653,302.109,230.093,300.999,229.5,299.25 C227.952,294.685,227.064,291.537,226.497,286.75 C226.2,284.236,224.708,281.79,226.497,280 Z"/><g><path fill="none" intaglio:arrow-start="1" intaglio:arrow-end="1" stroke="#000100" stroke-width="0.25" d="M252.219,227.75 L474.781,227.75" intaglio:d="M244.5,227.75 L482.5,227.75"/><path fill="#000100" intaglio:omit="yes" d="M252.625,231 L244.5,227.75 L252.625,224.5"/><path fill="#000100" intaglio:omit="yes" d="M474.375,224.5 L482.5,227.75 L474.375,231"/></g><g><path fill="none" intaglio:arrow-start="1" intaglio:arrow-end="1" stroke="#000100" stroke-width="0.25" d="M490.219,227.75 L492.784,227.75" intaglio:d="M482.5,227.75 L500.503,227.75"/><path fill="#000100" intaglio:omit="yes" d="M490.625,231 L482.5,227.75 L490.625,224.5"/><path fill="#000100" intaglio:omit="yes" d="M492.378,224.5 L500.503,227.75 L492.378,231"/></g><g><path fill="none" intaglio:arrow-start="1" intaglio:arrow-end="1" stroke="#000100" stroke-width="0.25" d="M234.216,227.75 L236.781,227.75" intaglio:d="M226.497,227.75 L244.5,227.75"/><path fill="#000100" intaglio:omit="yes" d="M234.622,231 L226.497,227.75 L234.622,224.5"/><path fill="#000100" intaglio:omit="yes" d="M236.375,224.5 L244.5,227.75 L236.375,231"/></g><g><path fill="none" intaglio:arrow-start="1" stroke="#000100" d="M570.246,265.711 L590.75,282.5" intaglio:d="M562.896,259.693 L590.75,282.5"/><path fill="#000100" intaglio:omit="yes" d="M568.099,269.123 L562.896,259.693 L573.167,262.933"/></g><path fill="none" stroke="#000100" stroke-width="0.25" d="M226.497,265.25 L226.497,224.25"/><path fill="none" stroke="#000100" stroke-width="0.25" d="M500.503,265.25 L500.503,224.25"/><path fill="none" stroke="#000100" stroke-width="0.25" stroke-dasharray="18,8,2,8" d="M185.25,282.5 L643.5,282.5"/><path fill="none" stroke="#000100" stroke-width="0.25" d="M244.747,243.75 L244.747,224.25"/><path fill="none" stroke="#000100" stroke-width="0.25" d="M482.5,243.75 L482.5,224.25"/><g><path fill="none" intaglio:arrow-start="1" intaglio:arrow-end="1" stroke="#000100" d="M295,289.5 L295,309" intaglio:d="M295,280 L295,318.5"/><path fill="#000100" intaglio:omit="yes" d="M291,290 L295,280 L299,290"/><path fill="#000100" intaglio:omit="yes" d="M299,308.5 L295,318.5 L291,308.5"/></g><g><path fill="none" stroke="#000100" d="M244.5,318.5 C224.618,303.588,220.588,275.382,235.5,255.5 C238.058,252.089,241.089,249.058,244.5,246.5 L482.5,246.5 C502.382,261.412,506.412,289.618,491.5,309.5 C488.942,312.911,485.911,315.942,482.5,318.5"/><path fill="none" stroke="#000100" d="M244.5,318.5 L482.5,318.5"/></g><path fill="none" stroke="#000100" d="M226.497,280 L500.503,280"/><g><path fill="none" intaglio:arrow-start="1" intaglio:arrow-end="1" stroke="#000100" d="M360,328 L360,459" intaglio:d="M360,318.5 L360,468.5"/><path fill="#000100" intaglio:omit="yes" d="M356,328.5 L360,318.5 L364,328.5"/><path fill="#000100" intaglio:omit="yes" d="M364,458.5 L360,468.5 L356,458.5"/></g><path fill="none" stroke="#000100" d="M225.632,468.5 L500.503,468.5"/><pattern id="60000135a980" xlink:href="#600001f79930" patternTransform="matrix(0.764059,0,0,1,85.3373,0)"/><path fill="url(#60000135a980)" d="M225.632,468.5 L500.503,468.5 L500.503,497 L225.632,497 L225.632,468.5 Z"/><path fill="none" stroke="#000100" stroke-width="0.25" stroke-dasharray="18,8,2,8" d="M590.75,238.5 L590.75,330"/><text fill="#000100" font-family="Times New Roman" font-size="10" transform="matrix(1,0,0,1,539.75,352.861)" xml:space="preserve"><tspan>Approximate fluid</tspan><tspan x="0" y="12">level at the time of</tspan><tspan x="0" y="24">the explosion.</tspan></text><text fill="#000100" font-family="Times New Roman" font-size="10" transform="matrix(1,0,0,1,160.254,327.861)" xml:space="preserve"><tspan>2:1 ellipsoid</tspan></text><g><path fill="none" intaglio:arrow-end="1" stroke="#000100" d="M212.5,325.459 L225.243,310.899" intaglio:d="M212.5,325.459 L231.5,303.75"/><path fill="#000100" intaglio:omit="yes" d="M221.904,308.641 L231.5,303.75 L227.924,313.909"/></g><g><path fill="none" intaglio:arrow-start="15" stroke="#000100" d="M577.782,299.25 L532,348.5"/><path fill="#000100" intaglio:omit="yes" d="M580.165,296.687 C581.581,298.003,581.662,300.217,580.346,301.633 C579.03,303.049,576.815,303.13,575.399,301.813 C573.983,300.497,573.903,298.283,575.219,296.867 C576.535,295.451,578.749,295.37,580.165,296.687"/></g><g><path fill="none" intaglio:arrow-start="15" stroke="#000100" d="M476.5,299.25 L532,348.5"/><path fill="#000100" intaglio:omit="yes" d="M473.882,296.927 C475.165,295.481,477.377,295.349,478.823,296.632 C480.269,297.915,480.401,300.127,479.118,301.573 C477.835,303.019,475.623,303.151,474.177,301.868 C472.731,300.585,472.599,298.373,473.882,296.927"/></g><path fill="none" stroke="#000100" d="M532,348.5 L539.828,348.5"/><path fill="none" stroke="#000100" d="M403,246.5 L403,238.5"/><path fill="#fffffe" stroke="#000100" d="M410.787,242.651 C410.787,242.651,403.375,238.297,403.375,238.297 C403.375,238.297,410.852,234.055,410.852,234.055 C410.852,234.055,410.787,242.651,410.787,242.651 Z"/><path fill="#fffffe" stroke="#000100" d="M407.298,230.326 C407.298,230.326,402.944,237.738,402.944,237.738 C402.944,237.738,398.702,230.262,398.702,230.262 C398.702,230.262,407.298,230.326,407.298,230.326 Z"/><path fill="none" stroke="#000100" d="M403,230.262 L403,218.125"/><path fill="none" stroke="#000100" stroke-width="0.25" d="M398.632,228.938 L407.132,226.563"/><path fill="none" stroke="#000100" stroke-width="0.25" d="M399.64,225.975 L406.124,223.918"/><path fill="none" stroke="#000100" stroke-width="0.25" d="M400.468,222.833 L405.296,221.274"/><path fill="none" stroke="#000100" stroke-width="0.25" d="M401.046,219.909 L404.718,218.63"/><text fill="#000100" font-family="Times New Roman" font-size="10" transform="matrix(1,0,0,1,408.75,214.861)" xml:space="preserve"><tspan>3" PSV</tspan></text><path fill="none" stroke="#000100" stroke-dasharray="5" d="M336.25,316.875 L378.5,316.875"/><g><path fill="none" intaglio:arrow-start="1" stroke="#000100" d="M360,307.375 L360,291.625" intaglio:d="M360,316.875 L360,291.625"/><path fill="#000100" intaglio:omit="yes" d="M364,306.875 L360,316.875 L356,306.875"/></g><path fill="none" stroke="#000100" d="M360,290.625 L370.75,290.625"/><text fill="#000100" font-family="Times New Roman" font-size="10" transform="matrix(1,0,0,1,374.914,293.936)" xml:space="preserve"><tspan>13/16"</tspan></text></svg>
