<?xml version="1.0" encoding="UTF-8" standalone="no"?>
<!DOCTYPE svg PUBLIC "-//W3C//DTD SVG 1.1//EN" "http://www.w3.org/Graphics/SVG/1.1/DTD/svg11.dtd">
<!--Generated by Intaglio, www.PurgatoryDesign.com-->
<svg version="1.1" viewBox="0,0,734,576" width="734" height="576" xmlns="http://www.w3.org/2000/svg" xmlns:xlink="http://www.w3.org/1999/xlink" xmlns:intaglio="http://purgatorydesign.com/namespaces/intaglio" intaglio:grid="36,36,1,1,0.5,#9999bf,1,0,0,0" intaglio:guides="0.8,#f0f,1,1" intaglio:ruler="0,10,10,1,1,0,0"><path fill="none" stroke="#000100" d="M109.668,8.73927 L537.689,8.73927 L537.689,436.761 L109.668,436.761 L109.668,8.73927 Z"/><g><path fill="none" intaglio:arrow-start="1" intaglio:arrow-end="1" stroke="#00f" stroke-width="0.25" d="M117.387,461.569 L529.971,461.569" intaglio:d="M109.668,461.569 L537.689,461.569"/><path fill="#00f" intaglio:omit="yes" d="M117.793,464.819 L109.668,461.569 L117.793,458.319"/><path fill="#00f" intaglio:omit="yes" d="M529.564,458.319 L537.689,461.569 L529.564,464.819"/></g><g><path fill="none" intaglio:arrow-start="1" intaglio:arrow-end="1" stroke="#00f" stroke-width="0.25" d="M88.1785,429.042 L88.1785,16.458" intaglio:d="M88.1785,436.761 L88.1785,8.73927"/><path fill="#00f" intaglio:omit="yes" d="M91.4285,428.636 L88.1785,436.761 L84.9285,428.636"/><path fill="#00f" intaglio:omit="yes" d="M84.9285,16.8643 L88.1785,8.73927 L91.4285,16.8643"/></g><path fill="none" stroke="#00f" stroke-width="0.25" d="M72,8.73927 L109.668,8.73927"/><path fill="none" stroke="#00f" stroke-width="0.25" d="M72,436.761 L109.668,436.761"/><path fill="none" stroke="#00f" stroke-width="0.25" d="M109.668,487.5 L109.668,436.761"/><path fill="none" stroke="#00f" stroke-width="0.25" d="M537.689,487.5 L537.689,436.761"/><text fill="#000100" font-family="Times New Roman" font-size="10" transform="matrix(1,0,0,1,567.458,29.3264)" xml:space="preserve"><tspan>1. Material: A36 1" steel plate</tspan><tspan x="0" y="12">2. All dimensions in feet-inches</tspan><tspan x="0" y="24">3. All edges to be cleaned and deburred</tspan><tspan x="0" y="36">4. Tolerance: - 0.125 inch</tspan><tspan x="0" y="48">5.  40 each</tspan></text><text fill="#000100" font-family="Times New Roman" font-size="10" transform="matrix(1,0,0,1,607.169,542.499)" xml:space="preserve"><tspan>S. Kevin McNeill</tspan><tspan x="0" y="12">202-431-9050</tspan><tspan x="0" y="24">shonn.mcneill@atf.gov</tspan></text><path fill="none" stroke="#000" d="M599.188,532.732 L729.812,532.732 L729.812,570.982 L599.188,570.982 L599.188,532.732 Z"/><path fill="none" stroke="#000" d="M599.188,544.982 L729.812,544.982"/><path fill="none" stroke="#000" d="M598.812,557.732 L729.812,557.732"/><path fill="#fffffe" stroke="#000" d="M109.668,487.5 L537.688,487.5 L537.688,559.5 L109.668,559.5 L109.668,487.5 Z"/><g><path fill="none" intaglio:arrow-start="1" intaglio:arrow-end="1" stroke="#00f" stroke-width="0.25" d="M88.1785,551.781 L88.1785,495.219" intaglio:d="M88.1785,559.5 L88.1785,487.5"/><path fill="#00f" intaglio:omit="yes" d="M91.4285,551.375 L88.1785,559.5 L84.9285,551.375"/><path fill="#00f" intaglio:omit="yes" d="M84.9285,495.625 L88.1785,487.5 L91.4285,495.625"/></g><path fill="none" stroke="#00f" stroke-width="0.25" d="M109.668,487.5 L72,487.5"/><path fill="none" stroke="#00f" stroke-width="0.25" d="M109.668,559.5 L72,559.5"/><path fill="#fffffe" stroke="#000" d="M599,520.482 L729.625,520.482 L729.625,532.732 L599,532.732 L599,520.482 Z"/><text fill="#000100" font-family="Times New Roman" font-size="10" transform="matrix(1,0,0,1,607.516,529.917)" xml:space="preserve"><tspan>NCETR</tspan></text></svg>
