<?xml version="1.0" encoding="UTF-8" standalone="no"?>
<!DOCTYPE svg PUBLIC "-//W3C//DTD SVG 1.1//EN" "http://www.w3.org/Graphics/SVG/1.1/DTD/svg11.dtd">
<!--Generated by Intaglio, www.PurgatoryDesign.com-->
<svg version="1.1" viewBox="0,0,734,576" width="734" height="576" xmlns="http://www.w3.org/2000/svg" xmlns:xlink="http://www.w3.org/1999/xlink" xmlns:intaglio="http://purgatorydesign.com/namespaces/intaglio" intaglio:grid="36,36,1,1,0.5,#9999bf,1,0,0,0" intaglio:guides="0.8,#f0f,1,1" intaglio:ruler="0,10,10,1,10,0,0"><defs><pattern id="600002b2b330" width="64" height="64" patternUnits="userSpaceOnUse"><g><path fill="none" stroke="#000" stroke-linecap="square" d="M-8,-8 L72,72"/><path fill="none" stroke="#000" stroke-linecap="square" d="M0,-8 L72,64"/><path fill="none" stroke="#000" stroke-linecap="square" d="M8,-8 L72,56"/><path fill="none" stroke="#000" stroke-linecap="square" d="M16,-8 L72,48"/><path fill="none" stroke="#000" stroke-linecap="square" d="M24,-8 L72,40"/><path fill="none" stroke="#000" stroke-linecap="square" d="M32,-8 L72,32"/><path fill="none" stroke="#000" stroke-linecap="square" d="M40,-8 L72,24"/><path fill="none" stroke="#000" stroke-linecap="square" d="M48,-8 L72,16"/><path fill="none" stroke="#000" stroke-linecap="square" d="M-8,0 L64,72"/><path fill="none" stroke="#000" stroke-linecap="square" d="M-8,8 L56,72"/><path fill="none" stroke="#000" stroke-linecap="square" d="M-8,16 L48,72"/><path fill="none" stroke="#000" stroke-linecap="square" d="M-8,24 L40,72"/><path fill="none" stroke="#000" stroke-linecap="square" d="M-8,32 L32,72"/><path fill="none" stroke="#000" stroke-linecap="square" d="M-8,40 L24,72"/><path fill="none" stroke="#000" stroke-linecap="square" d="M-8,48 L16,72"/><path fill="none" stroke="#000" stroke-linecap="square" d="M56,-8 L72,8"/><path fill="none" stroke="#000" stroke-linecap="square" d="M-8,56 L8,72"/></g></pattern><pattern id="600002b2b810" width="32" height="32" patternUnits="userSpaceOnUse"><g><path fill="none" stroke="#000" stroke-linecap="square" d="M-4,-4 L36,36"/><path fill="none" stroke="#000" stroke-linecap="square" d="M0,-4 L36,32"/><path fill="none" stroke="#000" stroke-linecap="square" d="M4,-4 L36,28"/><path fill="none" stroke="#000" stroke-linecap="square" d="M8,-4 L36,24"/><path fill="none" stroke="#000" stroke-linecap="square" d="M12,-4 L36,20"/><path fill="none" stroke="#000" stroke-linecap="square" d="M16,-4 L36,16"/><path fill="none" stroke="#000" stroke-linecap="square" d="M20,-4 L36,12"/><path fill="none" stroke="#000" stroke-linecap="square" d="M24,-4 L36,8"/><path fill="none" stroke="#000" stroke-linecap="square" d="M-4,0 L32,36"/><path fill="none" stroke="#000" stroke-linecap="square" d="M-4,4 L28,36"/><path fill="none" stroke="#000" stroke-linecap="square" d="M-4,8 L24,36"/><path fill="none" stroke="#000" stroke-linecap="square" d="M-4,12 L20,36"/><path fill="none" stroke="#000" stroke-linecap="square" d="M-4,16 L16,36"/><path fill="none" stroke="#000" stroke-linecap="square" d="M-4,20 L12,36"/><path fill="none" stroke="#000" stroke-linecap="square" d="M-4,24 L8,36"/><path fill="none" stroke="#000" stroke-linecap="square" d="M28,-4 L36,4"/><path fill="none" stroke="#000" stroke-linecap="square" d="M-4,28 L4,36"/></g></pattern><pattern id="600002b29d40" width="32" height="32" patternUnits="userSpaceOnUse"><g><path fill="none" stroke="#000" stroke-linecap="square" d="M-4,-4 L36,36"/><path fill="none" stroke="#000" stroke-linecap="square" d="M0,-4 L36,32"/><path fill="none" stroke="#000" stroke-linecap="square" d="M4,-4 L36,28"/><path fill="none" stroke="#000" stroke-linecap="square" d="M8,-4 L36,24"/><path fill="none" stroke="#000" stroke-linecap="square" d="M12,-4 L36,20"/><path fill="none" stroke="#000" stroke-linecap="square" d="M16,-4 L36,16"/><path fill="none" stroke="#000" stroke-linecap="square" d="M20,-4 L36,12"/><path fill="none" stroke="#000" stroke-linecap="square" d="M24,-4 L36,8"/><path fill="none" stroke="#000" stroke-linecap="square" d="M-4,0 L32,36"/><path fill="none" stroke="#000" stroke-linecap="square" d="M-4,4 L28,36"/><path fill="none" stroke="#000" stroke-linecap="square" d="M-4,8 L24,36"/><path fill="none" stroke="#000" stroke-linecap="square" d="M-4,12 L20,36"/><path fill="none" stroke="#000" stroke-linecap="square" d="M-4,16 L16,36"/><path fill="none" stroke="#000" stroke-linecap="square" d="M-4,20 L12,36"/><path fill="none" stroke="#000" stroke-linecap="square" d="M-4,24 L8,36"/><path fill="none" stroke="#000" stroke-linecap="square" d="M28,-4 L36,4"/><path fill="none" stroke="#000" stroke-linecap="square" d="M-4,28 L4,36"/></g></pattern><pattern id="600002b28ea0" width="32" height="32" patternUnits="userSpaceOnUse"><g><path fill="none" stroke="#000" stroke-linecap="square" d="M-4,-4 L36,36"/><path fill="none" stroke="#000" stroke-linecap="square" d="M0,-4 L36,32"/><path fill="none" stroke="#000" stroke-linecap="square" d="M4,-4 L36,28"/><path fill="none" stroke="#000" stroke-linecap="square" d="M8,-4 L36,24"/><path fill="none" stroke="#000" stroke-linecap="square" d="M12,-4 L36,20"/><path fill="none" stroke="#000" stroke-linecap="square" d="M16,-4 L36,16"/><path fill="none" stroke="#000" stroke-linecap="square" d="M20,-4 L36,12"/><path fill="none" stroke="#000" stroke-linecap="square" d="M24,-4 L36,8"/><path fill="none" stroke="#000" stroke-linecap="square" d="M-4,0 L32,36"/><path fill="none" stroke="#000" stroke-linecap="square" d="M-4,4 L28,36"/><path fill="none" stroke="#000" stroke-linecap="square" d="M-4,8 L24,36"/><path fill="none" stroke="#000" stroke-linecap="square" d="M-4,12 L20,36"/><path fill="none" stroke="#000" stroke-linecap="square" d="M-4,16 L16,36"/><path fill="none" stroke="#000" stroke-linecap="square" d="M-4,20 L12,36"/><path fill="none" stroke="#000" stroke-linecap="square" d="M-4,24 L8,36"/><path fill="none" stroke="#000" stroke-linecap="square" d="M28,-4 L36,4"/><path fill="none" stroke="#000" stroke-linecap="square" d="M-4,28 L4,36"/></g></pattern></defs><text fill="#000100" font-family="Times New Roman" font-size="10" transform="matrix(1.11022e-16,-1,1,1.11022e-16,276.251,531.521)" xml:space="preserve"><tspan>0'-1"</tspan></text><path fill="none" stroke="#00f" stroke-width="0.25" stroke-dasharray="18,8,2,8" d="M17.5,203.156 L708.7,203.156"/><path fill="none" stroke="#000100" d="M14,30.45 L705.2,30.45 L705.2,376.05 L14,376.05 L14,30.45 Z"/><g><path fill="none" intaglio:arrow-start="1" intaglio:arrow-end="1" stroke="#00f" stroke-width="0.25" d="M21.7188,17 L697.481,17" intaglio:d="M14,17 L705.2,17"/><path fill="#00f" intaglio:omit="yes" d="M22.125,20.25 L14,17 L22.125,13.75"/><path fill="#00f" intaglio:omit="yes" d="M697.075,13.75 L705.2,17 L697.075,20.25"/></g><g><path fill="none" intaglio:arrow-start="1" intaglio:arrow-end="1" stroke="#00f" stroke-width="0.25" d="M718.7,38.1687 L718.7,368.331" intaglio:d="M718.7,30.45 L718.7,376.05"/><path fill="#00f" intaglio:omit="yes" d="M715.45,38.575 L718.7,30.45 L721.95,38.575"/><path fill="#00f" intaglio:omit="yes" d="M721.95,367.925 L718.7,376.05 L715.45,367.925"/></g><path fill="none" stroke="#000100" d="M269.479,181.369 L312.679,181.369 L312.679,224.569 L269.479,224.569 L269.479,181.369 Z"/><path fill="none" stroke="#00f" stroke-width="0.25" d="M291.079,59.2188 L291.079,213.169"/><path fill="none" stroke="#000100" d="M361.4,203.269 C361.4,204.263,360.594,205.069,359.6,205.069 C358.606,205.069,357.8,204.263,357.8,203.269 C357.8,202.275,358.606,201.469,359.6,201.469 C360.594,201.469,361.4,202.275,361.4,203.269 Z"/><g><path fill="none" intaglio:arrow-start="1" intaglio:arrow-end="1" stroke="#00f" stroke-width="0.25" d="M298.797,185.719 L351.93,185.719" intaglio:d="M291.079,185.719 L359.649,185.719"/><path fill="#00f" intaglio:omit="yes" d="M299.204,188.969 L291.079,185.719 L299.204,182.469"/><path fill="#00f" intaglio:omit="yes" d="M351.524,182.469 L359.649,185.719 L351.524,188.969"/></g><g><path fill="none" intaglio:arrow-start="1" intaglio:arrow-end="1" stroke="#00f" stroke-width="0.25" d="M298.797,162.819 L406.809,162.819" intaglio:d="M291.079,162.819 L414.527,162.819"/><path fill="#00f" intaglio:omit="yes" d="M299.204,166.069 L291.079,162.819 L299.204,159.569"/><path fill="#00f" intaglio:omit="yes" d="M406.402,159.569 L414.527,162.819 L406.402,166.069"/></g><path fill="none" stroke="#000100" stroke-width="0.25" d="M359.604,210.719 L359.604,176.219"/><path fill="none" stroke="#000100" d="M416.154,203.156 C416.154,204.15,415.348,204.956,414.354,204.956 C413.359,204.956,412.554,204.15,412.554,203.156 C412.554,202.162,413.359,201.356,414.354,201.356 C415.348,201.356,416.154,202.162,416.154,203.156 Z"/><path fill="none" stroke="#000100" d="M471.433,203.269 C471.433,204.263,470.627,205.069,469.633,205.069 C468.639,205.069,467.833,204.263,467.833,203.269 C467.833,202.275,468.639,201.469,469.633,201.469 C470.627,201.469,471.433,202.275,471.433,203.269 Z"/><path fill="none" stroke="#00f" stroke-width="0.25" d="M524.242,210.719 L524.242,110.969"/><path fill="none" stroke="#000100" d="M526.342,203.269 C526.342,204.263,525.536,205.069,524.542,205.069 C523.548,205.069,522.742,204.263,522.742,203.269 C522.742,202.275,523.548,201.469,524.542,201.469 C525.536,201.469,526.342,202.275,526.342,203.269 Z"/><path fill="none" stroke="#000100" d="M581.207,203.269 C581.207,204.263,580.401,205.069,579.407,205.069 C578.413,205.069,577.607,204.263,577.607,203.269 C577.607,202.275,578.413,201.469,579.407,201.469 C580.401,201.469,581.207,202.275,581.207,203.269 Z"/><path fill="none" stroke="#000100" d="M636.071,203.269 C636.071,204.263,635.266,205.069,634.271,205.069 C633.277,205.069,632.471,204.263,632.471,203.269 C632.471,202.275,633.277,201.469,634.271,201.469 C635.266,201.469,636.071,202.275,636.071,203.269 Z"/><path fill="none" stroke="#00f" stroke-width="0.25" d="M633.971,210.719 L633.971,66.2188"/><path fill="none" stroke="#00f" stroke-width="0.25" d="M469.333,210.719 L469.333,134.594"/><path fill="none" stroke="#00f" stroke-width="0.25" d="M414.354,210.844 L414.354,154.719"/><path fill="none" stroke="#00f" stroke-width="0.25" d="M579.107,210.719 L579.107,88.9688"/><g><path fill="none" intaglio:arrow-start="1" intaglio:arrow-end="1" stroke="#00f" stroke-width="0.25" d="M298.797,139.919 L461.659,139.919" intaglio:d="M291.079,139.919 L469.378,139.919"/><path fill="#00f" intaglio:omit="yes" d="M299.204,143.169 L291.079,139.919 L299.204,136.669"/><path fill="#00f" intaglio:omit="yes" d="M461.253,136.669 L469.378,139.919 L461.253,143.169"/></g><g><path fill="none" intaglio:arrow-start="1" intaglio:arrow-end="1" stroke="#00f" stroke-width="0.25" d="M298.797,117.019 L516.524,117.019" intaglio:d="M291.079,117.019 L524.242,117.019"/><path fill="#00f" intaglio:omit="yes" d="M299.204,120.269 L291.079,117.019 L299.204,113.769"/><path fill="#00f" intaglio:omit="yes" d="M516.117,113.769 L524.242,117.019 L516.117,120.269"/></g><g><path fill="none" intaglio:arrow-start="1" intaglio:arrow-end="1" stroke="#00f" stroke-width="0.25" d="M298.797,94.1188 L571.388,94.1188" intaglio:d="M291.079,94.1188 L579.107,94.1188"/><path fill="#00f" intaglio:omit="yes" d="M299.204,97.3688 L291.079,94.1188 L299.204,90.8688"/><path fill="#00f" intaglio:omit="yes" d="M570.982,90.8688 L579.107,94.1188 L570.982,97.3688"/></g><g><path fill="none" intaglio:arrow-start="1" intaglio:arrow-end="1" stroke="#00f" stroke-width="0.25" d="M298.797,71.2188 L626.239,71.2188" intaglio:d="M291.079,71.2188 L633.957,71.2188"/><path fill="#00f" intaglio:omit="yes" d="M299.204,74.4688 L291.079,71.2188 L299.204,67.9688"/><path fill="#00f" intaglio:omit="yes" d="M625.832,67.9688 L633.957,71.2188 L625.832,74.4688"/></g><g><path fill="none" intaglio:arrow-start="1" intaglio:arrow-end="1" stroke="#00f" stroke-width="0.25" d="M477.051,185.719 L516.478,185.719" intaglio:d="M469.333,185.719 L524.197,185.719"/><path fill="#00f" intaglio:omit="yes" d="M477.458,188.969 L469.333,185.719 L477.458,182.469"/><path fill="#00f" intaglio:omit="yes" d="M516.072,182.469 L524.197,185.719 L516.072,188.969"/></g><path fill="none" stroke="#00f" stroke-width="0.25" stroke-dasharray="18,8,2,8" d="M359.6,30.45 L359.6,376.05"/><g><path fill="none" intaglio:arrow-start="1" intaglio:arrow-end="1" stroke="#00f" stroke-width="0.25" d="M277.197,244.069 L304.96,244.069" intaglio:d="M269.479,244.069 L312.679,244.069"/><path fill="#00f" intaglio:omit="yes" d="M277.604,247.319 L269.479,244.069 L277.604,240.819"/><path fill="#00f" intaglio:omit="yes" d="M304.554,240.819 L312.679,244.069 L304.554,247.319"/></g><g><path fill="none" intaglio:arrow-start="1" intaglio:arrow-end="1" stroke="#00f" stroke-width="0.25" d="M248.479,216.85 L248.479,189.087" intaglio:d="M248.479,224.569 L248.479,181.369"/><path fill="#00f" intaglio:omit="yes" d="M251.729,216.444 L248.479,224.569 L245.229,216.444"/><path fill="#00f" intaglio:omit="yes" d="M245.229,189.494 L248.479,181.369 L251.729,189.494"/></g><g><path fill="none" intaglio:arrow-start="1" intaglio:arrow-end="1" stroke="#00f" stroke-width="0.25" d="M367.367,185.719 L406.78,185.719" intaglio:d="M359.649,185.719 L414.499,185.719"/><path fill="#00f" intaglio:omit="yes" d="M367.774,188.969 L359.649,185.719 L367.774,182.469"/><path fill="#00f" intaglio:omit="yes" d="M406.374,182.469 L414.499,185.719 L406.374,188.969"/></g><g><path fill="none" intaglio:arrow-start="1" intaglio:arrow-end="1" stroke="#00f" stroke-width="0.25" d="M422.072,185.719 L461.614,185.719" intaglio:d="M414.354,185.719 L469.333,185.719"/><path fill="#00f" intaglio:omit="yes" d="M422.479,188.969 L414.354,185.719 L422.479,182.469"/><path fill="#00f" intaglio:omit="yes" d="M461.208,182.469 L469.333,185.719 L461.208,188.969"/></g><g><path fill="none" intaglio:arrow-start="1" intaglio:arrow-end="1" stroke="#00f" stroke-width="0.25" d="M531.916,185.719 L571.388,185.719" intaglio:d="M524.197,185.719 L579.107,185.719"/><path fill="#00f" intaglio:omit="yes" d="M532.322,188.969 L524.197,185.719 L532.322,182.469"/><path fill="#00f" intaglio:omit="yes" d="M570.982,182.469 L579.107,185.719 L570.982,188.969"/></g><g><path fill="none" intaglio:arrow-start="1" intaglio:arrow-end="1" stroke="#00f" stroke-width="0.25" d="M586.826,185.719 L626.253,185.719" intaglio:d="M579.107,185.719 L633.971,185.719"/><path fill="#00f" intaglio:omit="yes" d="M587.232,188.969 L579.107,185.719 L587.232,182.469"/><path fill="#00f" intaglio:omit="yes" d="M625.846,182.469 L633.971,185.719 L625.846,188.969"/></g><g><path fill="none" intaglio:arrow-start="1" intaglio:arrow-end="1" stroke="#00f" stroke-width="0.25" d="M679.5,210.969 L679.5,368.331" intaglio:d="M679.5,203.25 L679.5,376.05"/><path fill="#00f" intaglio:omit="yes" d="M676.25,211.375 L679.5,203.25 L682.75,211.375"/><path fill="#00f" intaglio:omit="yes" d="M682.75,367.925 L679.5,376.05 L676.25,367.925"/></g><g><path fill="none" intaglio:arrow-start="1" intaglio:arrow-end="1" stroke="#00f" stroke-width="0.25" d="M21.7188,47 L351.881,47" intaglio:d="M14,47 L359.6,47"/><path fill="#00f" intaglio:omit="yes" d="M22.125,50.25 L14,47 L22.125,43.75"/><path fill="#00f" intaglio:omit="yes" d="M351.475,43.75 L359.6,47 L351.475,50.25"/></g><path fill="none" stroke="#00f" stroke-width="0.25" d="M269.479,181.369 L232,181.369"/><path fill="none" stroke="#00f" stroke-width="0.25" d="M269.479,224.569 L232,224.569"/><path fill="none" stroke="#00f" stroke-width="0.25" d="M269.479,224.569 L269.479,254.5"/><path fill="none" stroke="#00f" stroke-width="0.25" d="M312.679,224.569 L312.679,254.5"/><g><path fill="none" intaglio:arrow-start="1" stroke="#00f" stroke-width="0.25" d="M418.999,209.217 L458,263" intaglio:d="M414.468,202.969 L458,263"/><path fill="#00f" intaglio:omit="yes" d="M416.607,211.454 L414.468,202.969 L421.869,207.638"/></g><path fill="none" stroke="#00f" stroke-width="0.25" d="M458,263 L470.833,263"/><text fill="#000100" font-family="Times New Roman" font-size="10" transform="matrix(1,0,0,1,474.333,266.311)" xml:space="preserve"><tspan>See Note 1 (6 each)</tspan></text><pattern id="60000273fc10" xlink:href="#600002b2b330" patternTransform="matrix(0.6,0,0,0.6,269.04,213.816)"/><path fill="url(#60000273fc10)" stroke="#000" d="M317.64,505.116 L400.44,505.116 L396.84,511.116 L405.84,518.616 L400.44,523.716 L407.64,528.516 L400.44,539.016 L317.64,539.016 L312.54,533.616 L322.14,528.216 L311.94,523.716 L320.64,515.316 L317.64,505.116 Z"/><path fill="#fffffe" stroke="#000" d="M349.89,505.116 L369.69,505.116 L369.69,539.016 L349.89,539.016 L349.89,505.116 Z"/><path fill="none" stroke="#000" stroke-dasharray="2" d="M369.69,505.116 L374.34,505.116 L374.34,539.016 L369.69,539.016 L369.69,505.116 Z"/><path fill="none" stroke="#000" stroke-dasharray="2" d="M345.24,505.116 L349.89,505.116 L349.89,539.016 L345.24,539.016 L345.24,505.116 Z"/><path fill="#fffffe" stroke="#000" d="M369.69,483.441 C369.69,488.867,365.291,493.266,359.865,493.266 C354.439,493.266,350.04,488.867,350.04,483.441 C350.04,478.015,354.439,473.616,359.865,473.616 C365.291,473.616,369.69,478.015,369.69,483.441 Z"/><path fill="none" stroke="#000" stroke-dasharray="2" d="M375.09,483.441 C375.09,491.891,368.24,498.741,359.79,498.741 C351.34,498.741,344.49,491.891,344.49,483.441 C344.49,474.991,351.34,468.141,359.79,468.141 C368.24,468.141,375.09,474.991,375.09,483.441 Z"/><path fill="none" stroke="#00f" stroke-width="0.25" stroke-dasharray="18,8,2,8" d="M359.861,392.266 L359.861,553.266"/><path fill="none" stroke="#00f" stroke-width="0.25" stroke-dasharray="18,8,2,8" d="M332.34,483.441 L389.34,483.441"/><text fill="#000100" stroke="#00f" stroke-width="0.25" font-family="Times New Roman" font-size="10" transform="matrix(1,0,0,1,422.674,492.616)" xml:space="preserve"><tspan>1/2 - 20 UNF - 2B</tspan></text><g><path fill="none" intaglio:arrow-start="1" stroke="#00f" stroke-width="0.25" d="M368.202,502.798 L411.315,489.223" intaglio:d="M360.84,505.116 L411.315,489.223"/><path fill="#00f" intaglio:omit="yes" d="M369.566,505.776 L360.84,505.116 L367.614,499.576"/></g><g><path fill="none" intaglio:arrow-end="1" stroke="#00f" stroke-width="0.25" d="M411.315,489.223 L368.509,484.319" intaglio:d="M411.315,489.223 L360.84,483.441"/><path fill="#00f" intaglio:omit="yes" d="M368.542,487.594 L360.84,483.441 L369.282,481.137"/></g><path fill="none" stroke="#00f" stroke-width="0.25" d="M411.315,489.223 L421.705,489.223"/><text fill="#000100" font-family="Times New Roman" font-size="10" transform="matrix(1,0,0,1,303.076,557.824)" xml:space="preserve"><tspan>Note 1: Drill and tap 6 holes.</tspan></text><path fill="none" stroke="#00f" stroke-width="0.25" d="M705.2,376.05 L728,376.05"/><path fill="none" stroke="#00f" stroke-width="0.25" d="M705.2,30.45 L728,30.45"/><path fill="none" stroke="#00f" stroke-width="0.25" d="M705.2,30.45 L705.2,7"/><path fill="none" stroke="#00f" stroke-width="0.25" d="M14,30.45 L14,7"/><text fill="#000100" font-family="Times New Roman" font-size="10" transform="matrix(1,0,0,1,608.732,544.731)" xml:space="preserve"><tspan>S. Kevin McNeill</tspan><tspan x="0" y="12">202-431-9050</tspan><tspan x="0" y="24">shonn.mcneill@atf.gov</tspan></text><path fill="none" stroke="#000" d="M600.75,534.963 L731.375,534.963 L731.375,573.213 L600.75,573.213 L600.75,534.963 Z"/><path fill="none" stroke="#000" d="M600.75,547.213 L731.375,547.213"/><path fill="none" stroke="#000" d="M600.375,559.963 L731.375,559.963"/><text fill="#000100" font-family="Times New Roman" font-size="10" transform="matrix(1,0,0,1,13.8438,523.826)" xml:space="preserve"><tspan>1. Material: A36 4'x8'x1" steel plate</tspan><tspan x="0" y="12">2. All dimensions in feet-inches</tspan><tspan x="0" y="24">3. All edges to be cleaned and deburred</tspan><tspan x="0" y="36">4. Tolerance: + 0.125 inch</tspan></text><path fill="#fffffe" stroke="#000" d="M14,392.266 L705.2,392.266 L705.2,399.466 L14,399.466 L14,392.266 Z"/><path fill="none" stroke="#000" d="M269.809,392.266 L269.809,399.466"/><path fill="none" stroke="#000" d="M313.009,392.266 L313.009,399.466"/><path fill="#fffffe" stroke="#000" d="M358.516,392.266 L362.116,392.266 L362.116,399.466 L358.516,399.466 L358.516,392.266 Z"/><path fill="#fffffe" stroke="#000" d="M412.999,392.266 L416.599,392.266 L416.599,399.466 L412.999,399.466 L412.999,392.266 Z"/><path fill="#fffffe" stroke="#000" d="M467.863,392.266 L471.463,392.266 L471.463,399.466 L467.863,399.466 L467.863,392.266 Z"/><path fill="#fffffe" stroke="#000" d="M522.773,392.266 L526.373,392.266 L526.373,399.466 L522.773,399.466 L522.773,392.266 Z"/><path fill="#fffffe" stroke="#000" d="M577.637,392.266 L581.237,392.266 L581.237,399.466 L577.637,399.466 L577.637,392.266 Z"/><path fill="#fffffe" stroke="#000" d="M632.502,392.266 L636.102,392.266 L636.102,399.466 L632.502,399.466 L632.502,392.266 Z"/><g><path fill="none" intaglio:arrow-start="1" stroke="#00f" stroke-width="0.25" d="M366.445,206.996 L458,263" intaglio:d="M359.861,202.969 L458,263"/><path fill="#00f" intaglio:omit="yes" d="M365.096,209.981 L359.861,202.969 L368.488,204.436"/></g><g><path fill="none" intaglio:arrow-start="1" stroke="#00f" stroke-width="0.25" d="M626.666,205.461 L458,263" intaglio:d="M633.971,202.969 L458,263"/><path fill="#00f" intaglio:omit="yes" d="M625.232,202.516 L633.971,202.969 L627.331,208.668"/></g><g><path fill="none" intaglio:arrow-start="1" stroke="#00f" stroke-width="0.25" d="M572.191,206.397 L458,263" intaglio:d="M579.107,202.969 L458,263"/><path fill="#00f" intaglio:omit="yes" d="M570.384,203.665 L579.107,202.969 L573.271,209.489"/></g><g><path fill="none" intaglio:arrow-start="1" stroke="#00f" stroke-width="0.25" d="M519.222,208.121 L458,263" intaglio:d="M524.97,202.969 L458,263"/><path fill="#00f" intaglio:omit="yes" d="M516.75,205.972 L524.97,202.969 L521.089,210.812"/></g><g><path fill="none" intaglio:arrow-start="1" stroke="#00f" stroke-width="0.25" d="M468.24,210.544 L458,263" intaglio:d="M469.719,202.969 L458,263"/><path fill="#00f" intaglio:omit="yes" d="M464.972,210.321 L469.719,202.969 L471.352,211.566"/></g><pattern id="60000273ff80" xlink:href="#600002b2b810" patternTransform="matrix(1,0,0,1,0.330415,7.2)"/><path fill="url(#60000273ff80)" stroke="#000" d="M269.809,399.466 L14,399.466 L14,392.266 L269.809,392.266 L269.809,399.466 Z"/><pattern id="60000273f950" xlink:href="#600002b29d40" patternTransform="matrix(1,0,0,1,0.330415,7.2)"/><path fill="url(#60000273f950)" stroke="#000" d="M313.009,392.266 L358.516,392.266 L358.516,399.466 L313.009,399.466 L313.009,392.266 Z"/><pattern id="60000273f480" xlink:href="#600002b29d40" patternTransform="matrix(1,0,0,1,0.330415,7.2)"/><path fill="url(#60000273f480)" stroke="#000" d="M362.116,392.266 L412.999,392.266 L412.999,399.466 L362.116,399.466 L362.116,392.266 Z"/><pattern id="60000273de80" xlink:href="#600002b28ea0" patternTransform="matrix(1,0,0,1,0.330415,7.2)"/><path fill="url(#60000273de80)" stroke="#000" d="M416.981,392.266 L467.863,392.266 L467.863,399.466 L416.981,399.466 L416.981,392.266 Z"/><pattern id="60000273fed0" xlink:href="#600002b28ea0" patternTransform="matrix(1,0,0,1,0.330415,7.2)"/><path fill="url(#60000273fed0)" stroke="#000" d="M471.891,392.266 L522.773,392.266 L522.773,399.466 L471.891,399.466 L471.891,392.266 Z"/><pattern id="60000273f7f0" xlink:href="#600002b28ea0" patternTransform="matrix(1,0,0,1,0.330415,7.2)"/><path fill="url(#60000273f7f0)" stroke="#000" d="M526.755,392.266 L577.637,392.266 L577.637,399.466 L526.755,399.466 L526.755,392.266 Z"/><pattern id="60000273f530" xlink:href="#600002b28ea0" patternTransform="matrix(1,0,0,1,0.330415,7.2)"/><path fill="url(#60000273f530)" stroke="#000" d="M581.237,392.266 L632.12,392.266 L632.12,399.466 L581.237,399.466 L581.237,392.266 Z"/><pattern id="60000273c0f0" xlink:href="#600002b28ea0" patternTransform="matrix(1,0,0,1,0.330415,7.2)"/><path fill="url(#60000273c0f0)" stroke="#000" d="M636.102,392.266 L705.2,392.266 L705.2,399.466 L636.102,399.466 L636.102,392.266 Z"/><text fill="#000100" font-family="Times New Roman" font-size="10" transform="matrix(1,0,0,1,304.576,418.115)" xml:space="preserve"><tspan>Note 1: Drill and tap 6 holes.</tspan></text><g><path fill="none" intaglio:arrow-start="1" intaglio:arrow-end="1" stroke="#00f" stroke-width="0.25" d="M287,512.835 L287,531.413" intaglio:d="M287,505.116 L287,539.132"/><path fill="#00f" intaglio:omit="yes" d="M283.75,513.241 L287,505.116 L290.25,513.241"/><path fill="#00f" intaglio:omit="yes" d="M290.25,531.007 L287,539.132 L283.75,531.007"/></g><path fill="#fffffe" stroke="#000" d="M600.75,522.713 L731.375,522.713 L731.375,534.963 L600.75,534.963 L600.75,522.713 Z"/><text fill="#000100" font-family="Times New Roman" font-size="10" transform="matrix(1,0,0,1,609.266,532.149)" xml:space="preserve"><tspan>NCETR</tspan></text></svg>
