<?xml version="1.0" encoding="UTF-8" standalone="no"?>
<!DOCTYPE svg PUBLIC "-//W3C//DTD SVG 1.1//EN" "http://www.w3.org/Graphics/SVG/1.1/DTD/svg11.dtd">
<!--Generated by Intaglio, www.PurgatoryDesign.com-->
<svg version="1.1" viewBox="0,0,734,576" width="734" height="576" xmlns="http://www.w3.org/2000/svg" xmlns:xlink="http://www.w3.org/1999/xlink" xmlns:intaglio="http://purgatorydesign.com/namespaces/intaglio" intaglio:grid="36,36,1,1,0.5,#9999bf,1,0,0,0" intaglio:guides="0.8,#f0f,1,1" intaglio:ruler="0,6,6,1,1600,0,0"><defs><radialGradient id="6000022bd3c0" gradientUnits="userSpaceOnUse"><stop offset="0" stop-color="#fd8008"/><stop offset="0.508475" stop-color="#fd8008"/><stop offset="1" stop-color="#fff"/></radialGradient></defs><radialGradient id="600000d26ec0" xlink:href="#6000022bd3c0" cx="24.9063" cy="77.6738" r="477.916"/><path fill="url(#600000d26ec0)" stroke="#000100" stroke-width="0.25" d="M362.844,246.643 C362.844,339.961,287.194,415.611,193.875,415.611 C100.556,415.611,24.9063,339.961,24.9063,246.643 C24.9063,153.324,100.556,77.6738,193.875,77.6738 C287.194,77.6738,362.844,153.324,362.844,246.643 Z"/><g><path fill="none" stroke="#000100" d="M182.698,418.851 C180.909,417.509,180.546,414.971,181.888,413.181 C182.118,412.874,182.391,412.602,182.698,412.372 L204.116,412.372 C205.905,413.713,206.268,416.252,204.926,418.041 C204.696,418.348,204.423,418.621,204.116,418.851"/><path fill="none" stroke="#000100" d="M182.698,418.851 L204.116,418.851"/></g><path fill="none" stroke="#000100" stroke-width="2" d="M17,432.351 L725,432.351"/><g><path fill="none" intaglio:arrow-end="1" stroke="#000100" d="M194.125,246.643 L353.594,246.643" intaglio:d="M194.125,246.643 L363.094,246.643"/><path fill="#000100" intaglio:omit="yes" d="M353.094,242.643 L363.094,246.643 L353.094,250.643"/></g><text fill="#000100" font-family="Times New Roman" font-size="36" transform="matrix(0.5,0,0,0.5,91.25,457.143)" xml:space="preserve"><tspan>TFSD</tspan></text><path fill="none" stroke="#000100" d="M140.946,452.184 L148.75,452.184"/><g><path fill="none" intaglio:arrow-end="1" stroke="#000100" d="M148.75,452.184 L175.919,425.507" intaglio:d="M148.75,452.184 L182.698,418.851"/><path fill="#000100" intaglio:omit="yes" d="M172.76,423.003 L182.698,418.851 L178.365,428.711"/></g><text fill="#000100" font-family="Times New Roman" font-size="36" transform="matrix(0.5,0,0,0.5,566.81,467.876)" xml:space="preserve"><tspan>Receptor</tspan></text><path fill="none" stroke="#000100" d="M564.004,461.75 L556.2,461.75"/><g><path fill="none" intaglio:arrow-end="1" stroke="#000100" d="M556.2,462.01 L530.206,436.487" intaglio:d="M556.2,462.01 L523.428,429.832"/><path fill="#000100" intaglio:omit="yes" d="M527.761,439.692 L523.428,429.832 L533.365,433.984"/></g><g><path fill="none" intaglio:arrow-start="1" intaglio:arrow-end="1" stroke="#000100" d="M193.875,256.143 L193.875,422.851" intaglio:d="M193.875,246.643 L193.875,432.351"/><path fill="#000100" intaglio:omit="yes" d="M189.875,256.643 L193.875,246.643 L197.875,256.643"/><path fill="#000100" intaglio:omit="yes" d="M197.875,422.351 L193.875,432.351 L189.875,422.351"/></g><g><path fill="none" intaglio:arrow-start="1" intaglio:arrow-end="1" stroke="#000100" d="M203.375,472.351 L508.375,472.351" intaglio:d="M193.875,472.351 L517.875,472.351"/><path fill="#000100" intaglio:omit="yes" d="M203.875,476.351 L193.875,472.351 L203.875,468.351"/><path fill="#000100" intaglio:omit="yes" d="M507.875,468.351 L517.875,472.351 L507.875,476.351"/></g><path fill="none" stroke="#000100" stroke-width="0.25" d="M193.875,432.351 L193.875,490"/><path fill="none" stroke="#000100" stroke-width="0.25" d="M518,432 L518,490"/><path fill="#fb0207" stroke="#000100" stroke-width="0.25" d="M525.5,424.5 C525.5,428.642,522.142,432,518,432 C513.858,432,510.5,428.642,510.5,424.5 C510.5,420.358,513.858,417,518,417 C522.142,417,525.5,420.358,525.5,424.5 Z"/></svg>
