<?xml version="1.0" encoding="UTF-8" standalone="no"?>
<!DOCTYPE svg PUBLIC "-//W3C//DTD SVG 1.1//EN" "http://www.w3.org/Graphics/SVG/1.1/DTD/svg11.dtd">
<!--Generated by Intaglio, www.PurgatoryDesign.com-->
<svg version="1.1" viewBox="147,145,487,292" width="487" height="292" xmlns="http://www.w3.org/2000/svg" xmlns:xlink="http://www.w3.org/1999/xlink"><defs><pattern id="600001015520" width="64" height="64" patternUnits="userSpaceOnUse"><g><path fill="none" stroke="#000" stroke-linecap="square" d="M-8,72 L72,-8"/><path fill="none" stroke="#000" stroke-linecap="square" d="M-8,64 L64,-8"/><path fill="none" stroke="#000" stroke-linecap="square" d="M-8,56 L56,-8"/><path fill="none" stroke="#000" stroke-linecap="square" d="M-8,48 L48,-8"/><path fill="none" stroke="#000" stroke-linecap="square" d="M-8,40 L40,-8"/><path fill="none" stroke="#000" stroke-linecap="square" d="M-8,32 L32,-8"/><path fill="none" stroke="#000" stroke-linecap="square" d="M-8,24 L24,-8"/><path fill="none" stroke="#000" stroke-linecap="square" d="M-8,16 L16,-8"/><path fill="none" stroke="#000" stroke-linecap="square" d="M0,72 L72,0"/><path fill="none" stroke="#000" stroke-linecap="square" d="M8,72 L72,8"/><path fill="none" stroke="#000" stroke-linecap="square" d="M16,72 L72,16"/><path fill="none" stroke="#000" stroke-linecap="square" d="M24,72 L72,24"/><path fill="none" stroke="#000" stroke-linecap="square" d="M32,72 L72,32"/><path fill="none" stroke="#000" stroke-linecap="square" d="M40,72 L72,40"/><path fill="none" stroke="#000" stroke-linecap="square" d="M48,72 L72,48"/><path fill="none" stroke="#000" stroke-linecap="square" d="M-8,8 L8,-8"/><path fill="none" stroke="#000" stroke-linecap="square" d="M56,72 L72,56"/></g></pattern></defs><path fill="#ccc" fill-rule="evenodd" stroke="#000100" d="M617,222.75 L617,222.75 C617,242.77,600.77,259,580.75,259 C560.73,259,544.5,242.77,544.5,222.75 C544.5,221.999,544.523,221.249,544.57,220.5 L616.928,220.5 L616.93,220.5 C616.977,221.249,617,221.999,617,222.75 Z"/><image xlink:href="600000f559e0.jpeg" width="852" height="480" transform="matrix(0.0842136,0,0,0.0842136,384,369.577)"/><path fill="none" stroke="#000100" d="M617,222.75 C617,242.77,600.77,259,580.75,259 C560.73,259,544.5,242.77,544.5,222.75 C544.5,202.73,560.73,186.5,580.75,186.5 C600.77,186.5,617,202.73,617,222.75 Z"/><path fill="#ccc" d="M216.497,220 L490.503,220 L490.503,220 C492.425,221.923,490.501,224.531,490.5,227.25 C490.5,228.937,490.868,230.103,490.5,231.75 C490.116,233.469,489.192,234.38,488.5,236 C487.987,237.201,487.746,238.042,487.25,239.25 C486.628,240.764,486.383,241.871,485.5,243.25 C484.283,245.151,482.745,245.866,481.501,247.75 C480.531,249.22,480.513,250.559,479.5,252 C478.585,253.302,477.662,253.913,476.5,255 C475.045,256.362,472.5,258.5,472.5,258.5 L234.5,258.5 C234.5,258.5,232.261,256.843,231,255.75 C228.845,253.883,227.274,252.732,225.499,250.5 C223.668,248.197,222.849,246.364,221.5,243.75 C220.653,242.109,220.093,240.999,219.5,239.25 C217.952,234.685,217.064,231.537,216.497,226.75 C216.2,224.236,214.708,221.79,216.497,220 Z"/><g><path fill="none" stroke="#000100" stroke-width="0.25" d="M242.219,167.75 L464.781,167.75"/><path fill="#000100" d="M242.625,171 L234.5,167.75 L242.625,164.5"/><path fill="#000100" d="M464.375,164.5 L472.5,167.75 L464.375,171"/></g><g><path fill="none" stroke="#000100" stroke-width="0.25" d="M480.219,167.75 L482.784,167.75"/><path fill="#000100" d="M480.625,171 L472.5,167.75 L480.625,164.5"/><path fill="#000100" d="M482.378,164.5 L490.503,167.75 L482.378,171"/></g><g><path fill="none" stroke="#000100" stroke-width="0.25" d="M224.216,167.75 L226.781,167.75"/><path fill="#000100" d="M224.622,171 L216.497,167.75 L224.622,164.5"/><path fill="#000100" d="M226.375,164.5 L234.5,167.75 L226.375,171"/></g><g><path fill="none" stroke="#000100" d="M560.246,205.711 L580.75,222.5"/><path fill="#000100" d="M558.099,209.123 L552.896,199.693 L563.167,202.933"/></g><path fill="none" stroke="#000100" stroke-width="0.25" d="M216.497,205.25 L216.497,164.25"/><path fill="none" stroke="#000100" stroke-width="0.25" d="M490.503,205.25 L490.503,164.25"/><path fill="none" stroke="#000100" stroke-width="0.25" stroke-dasharray="18,8,2,8" d="M175.25,222.5 L633.5,222.5"/><path fill="none" stroke="#000100" stroke-width="0.25" d="M234.747,183.75 L234.747,164.25"/><path fill="none" stroke="#000100" stroke-width="0.25" d="M472.5,183.75 L472.5,164.25"/><g><path fill="none" stroke="#000100" d="M285,229.5 L285,249"/><path fill="#000100" d="M281,230 L285,220 L289,230"/><path fill="#000100" d="M289,248.5 L285,258.5 L281,248.5"/></g><g><path fill="none" stroke="#000100" d="M234.5,258.5 C214.618,243.588,210.588,215.382,225.5,195.5 C228.058,192.089,231.089,189.058,234.5,186.5 L472.5,186.5 C492.382,201.412,496.412,229.618,481.5,249.5 C478.942,252.911,475.911,255.942,472.5,258.5"/><path fill="none" stroke="#000100" d="M234.5,258.5 L472.5,258.5"/></g><path fill="none" stroke="#000100" d="M216.497,220 L490.503,220"/><g><path fill="none" stroke="#000100" d="M350,268 L350,399"/><path fill="#000100" d="M346,268.5 L350,258.5 L354,268.5"/><path fill="#000100" d="M354,398.5 L350,408.5 L346,398.5"/></g><path fill="none" stroke="#000100" d="M215.632,408.5 L490.503,408.5"/><pattern id="600001c34880" xlink:href="#600001015520" patternTransform="matrix(0.764059,0,0,1,75.3373,-60)"/><path fill="url(#600001c34880)" d="M215.632,408.5 L490.503,408.5 L490.503,437 L215.632,437 L215.632,408.5 Z"/><path fill="none" stroke="#000100" stroke-width="0.25" stroke-dasharray="18,8,2,8" d="M580.75,178.5 L580.75,270"/><text fill="#000100" font-family="Times New Roman" font-size="10" transform="matrix(1,0,0,1,529.75,292.861)" xml:space="preserve"><tspan>Approximate fluid</tspan><tspan x="0" y="12">level at the time of</tspan><tspan x="0" y="24">the explosion.</tspan></text><text fill="#000100" font-family="Times New Roman" font-size="10" transform="matrix(1,0,0,1,150.254,267.861)" xml:space="preserve"><tspan>2:1 ellipsoid</tspan></text><g><path fill="none" stroke="#000100" d="M202.5,265.459 L215.243,250.899"/><path fill="#000100" d="M211.904,248.641 L221.5,243.75 L217.924,253.909"/></g><g><path fill="none" stroke="#000100" d="M567.782,239.25 L522,288.5"/><path fill="#000100" d="M570.165,236.687 C571.581,238.003,571.662,240.217,570.346,241.633 C569.03,243.049,566.815,243.13,565.399,241.813 C563.983,240.497,563.903,238.283,565.219,236.867 C566.535,235.451,568.749,235.37,570.165,236.687"/></g><g><path fill="none" stroke="#000100" d="M466.5,239.25 L522,288.5"/><path fill="#000100" d="M463.882,236.927 C465.165,235.481,467.377,235.349,468.823,236.632 C470.269,237.915,470.401,240.127,469.118,241.573 C467.835,243.019,465.623,243.151,464.177,241.868 C462.731,240.585,462.599,238.373,463.882,236.927"/></g><path fill="none" stroke="#000100" d="M522,288.5 L529.828,288.5"/><path fill="none" stroke="#000100" d="M393,186.5 L393,178.5"/><path fill="#fffffe" stroke="#000100" d="M400.787,182.651 C400.787,182.651,393.375,178.297,393.375,178.297 C393.375,178.297,400.852,174.055,400.852,174.055 C400.852,174.055,400.787,182.651,400.787,182.651 Z"/><path fill="#fffffe" stroke="#000100" d="M397.298,170.326 C397.298,170.326,392.944,177.738,392.944,177.738 C392.944,177.738,388.702,170.262,388.702,170.262 C388.702,170.262,397.298,170.326,397.298,170.326 Z"/><path fill="none" stroke="#000100" d="M393,170.262 L393,158.125"/><path fill="none" stroke="#000100" stroke-width="0.25" d="M388.632,168.938 L397.132,166.563"/><path fill="none" stroke="#000100" stroke-width="0.25" d="M389.64,165.975 L396.124,163.918"/><path fill="none" stroke="#000100" stroke-width="0.25" d="M390.468,162.833 L395.296,161.274"/><path fill="none" stroke="#000100" stroke-width="0.25" d="M391.046,159.909 L394.718,158.63"/><text fill="#000100" font-family="Times New Roman" font-size="10" transform="matrix(1,0,0,1,398.75,154.861)" xml:space="preserve"><tspan>3" PSV</tspan></text><path fill="none" stroke="#000100" stroke-dasharray="5" d="M326.25,256.875 L368.5,256.875"/><g><path fill="none" stroke="#000100" d="M350,247.375 L350,231.625"/><path fill="#000100" d="M354,246.875 L350,256.875 L346,246.875"/></g><path fill="none" stroke="#000100" d="M350,230.625 L360.75,230.625"/><text fill="#000100" font-family="Times New Roman" font-size="10" transform="matrix(1,0,0,1,364.914,233.936)" xml:space="preserve"><tspan>13/16"</tspan></text></svg>
