<?xml version="1.0" encoding="UTF-8" standalone="no"?>
<!DOCTYPE svg PUBLIC "-//W3C//DTD SVG 1.1//EN" "http://www.w3.org/Graphics/SVG/1.1/DTD/svg11.dtd">
<!--Generated by Intaglio, www.PurgatoryDesign.com-->
<svg version="1.1" viewBox="0,0,734,576" width="734" height="576" xmlns="http://www.w3.org/2000/svg" xmlns:xlink="http://www.w3.org/1999/xlink" xmlns:intaglio="http://purgatorydesign.com/namespaces/intaglio" intaglio:grid="36,36,1,1,0.5,#9999bf,1,0,0,0" intaglio:guides="0.8,#f0f,1,1" intaglio:ruler="0,10,10,1,10,0,0"><defs><pattern id="600000ea0f70" width="64" height="64" patternUnits="userSpaceOnUse"><g><path fill="none" stroke="#000" stroke-linecap="square" d="M-8,-8 L72,72"/><path fill="none" stroke="#000" stroke-linecap="square" d="M0,-8 L72,64"/><path fill="none" stroke="#000" stroke-linecap="square" d="M8,-8 L72,56"/><path fill="none" stroke="#000" stroke-linecap="square" d="M16,-8 L72,48"/><path fill="none" stroke="#000" stroke-linecap="square" d="M24,-8 L72,40"/><path fill="none" stroke="#000" stroke-linecap="square" d="M32,-8 L72,32"/><path fill="none" stroke="#000" stroke-linecap="square" d="M40,-8 L72,24"/><path fill="none" stroke="#000" stroke-linecap="square" d="M48,-8 L72,16"/><path fill="none" stroke="#000" stroke-linecap="square" d="M-8,0 L64,72"/><path fill="none" stroke="#000" stroke-linecap="square" d="M-8,8 L56,72"/><path fill="none" stroke="#000" stroke-linecap="square" d="M-8,16 L48,72"/><path fill="none" stroke="#000" stroke-linecap="square" d="M-8,24 L40,72"/><path fill="none" stroke="#000" stroke-linecap="square" d="M-8,32 L32,72"/><path fill="none" stroke="#000" stroke-linecap="square" d="M-8,40 L24,72"/><path fill="none" stroke="#000" stroke-linecap="square" d="M-8,48 L16,72"/><path fill="none" stroke="#000" stroke-linecap="square" d="M56,-8 L72,8"/><path fill="none" stroke="#000" stroke-linecap="square" d="M-8,56 L8,72"/></g></pattern></defs><path fill="none" stroke="#ccc" stroke-dasharray="2" d="M210.409,150.35 L210.409,224 L372.409,224 L372.409,150.35 L210.409,150.35 L210.409,148.1 L372.409,148.1 L372.409,150.35 L372.409,150.35 L372.409,150.35"/><g><path fill="none" intaglio:arrow-start="1" intaglio:arrow-end="1" stroke="#00f" stroke-width="0.25" d="M21.7188,124 L697.481,124" intaglio:d="M14,124 L705.2,124"/><path fill="#00f" intaglio:omit="yes" d="M22.125,127.25 L14,124 L22.125,120.75"/><path fill="#00f" intaglio:omit="yes" d="M697.075,120.75 L705.2,124 L697.075,127.25"/></g><path fill="none" stroke="#00f" stroke-width="0.25" d="M705.2,137.45 L705.2,114"/><path fill="none" stroke="#00f" stroke-width="0.25" d="M14,137.45 L14,114"/><text fill="#000100" font-family="Times New Roman" font-size="10" transform="matrix(1,0,0,1,608.732,544.731)" xml:space="preserve"><tspan>S. Kevin McNeill</tspan><tspan x="0" y="12">202-431-9050</tspan><tspan x="0" y="24">shonn.mcneill@atf.gov</tspan></text><path fill="none" stroke="#000" d="M600.75,534.963 L731.375,534.963 L731.375,573.213 L600.75,573.213 L600.75,534.963 Z"/><path fill="none" stroke="#000" d="M600.75,547.213 L731.375,547.213"/><path fill="none" stroke="#000" d="M600.375,559.963 L731.375,559.963"/><text fill="#000100" font-family="Times New Roman" font-size="10" transform="matrix(1,0,0,1,13.8438,523.826)" xml:space="preserve"><tspan>1. Material: A36 4'x8'x1" steel plate</tspan><tspan x="0" y="12">2. All dimensions in feet-inches</tspan><tspan x="0" y="24">3. All edges to be cleaned and deburred</tspan><tspan x="0" y="36">4. Tolerance: + 0.125 inch</tspan></text><path fill="#fffffe" stroke="#000" d="M14,137.45 L705.2,137.45 L705.2,144.65 L14,144.65 L14,137.45 Z"/><path fill="none" stroke="#000" d="M269.809,137.45 L269.809,144.65"/><path fill="none" stroke="#000" d="M313.009,137.45 L313.009,144.65"/><path fill="#fffffe" stroke="#000" stroke-dasharray="2" d="M358.516,137.45 L362.116,137.45 L362.116,144.65 L358.516,144.65 L358.516,137.45 Z"/><path fill="#fffffe" stroke="#000" stroke-dasharray="2" d="M412.999,137.45 L416.599,137.45 L416.599,144.65 L412.999,144.65 L412.999,137.45 Z"/><path fill="#fffffe" stroke="#000" stroke-dasharray="2" d="M467.863,137.45 L471.463,137.45 L471.463,144.65 L467.863,144.65 L467.863,137.45 Z"/><path fill="#fffffe" stroke="#000" stroke-dasharray="2" d="M522.773,137.45 L526.373,137.45 L526.373,144.65 L522.773,144.65 L522.773,137.45 Z"/><path fill="#fffffe" stroke="#000" stroke-dasharray="2" d="M577.637,137.45 L581.237,137.45 L581.237,144.65 L577.637,144.65 L577.637,137.45 Z"/><path fill="#fffffe" stroke="#000" stroke-dasharray="2" d="M632.502,137.45 L636.102,137.45 L636.102,144.65 L632.502,144.65 L632.502,137.45 Z"/><g><path fill="none" intaglio:arrow-start="1" intaglio:arrow-end="1" stroke="#00f" d="M717.7,146.95 L717.7,387.15" intaglio:d="M717.7,137.45 L717.7,396.65"/><path fill="#00f" intaglio:omit="yes" d="M713.7,147.45 L717.7,137.45 L721.7,147.45"/><path fill="#00f" intaglio:omit="yes" d="M721.7,386.65 L717.7,396.65 L713.7,386.65"/></g><path fill="none" stroke="#000" d="M731.375,396.65 L8,396.65"/><path fill="none" stroke="#00f" stroke-width="0.25" d="M705.2,137.45 L727,137.45"/><path fill="#fffffe" stroke="#000" stroke-dasharray="2" d="M269.809,137.45 L313.009,137.45 L313.009,144.65 L269.809,144.65 L269.809,137.45 Z"/><path fill="none" stroke="#000" stroke-dasharray="18,8,2,8" d="M291.409,124 L291.409,396.65"/><g><path fill="none" intaglio:arrow-start="1" intaglio:arrow-end="1" stroke="#00f" stroke-width="0.25" d="M414.799,231.719 L414.799,389.081" intaglio:d="M414.799,224 L414.799,396.8"/><path fill="#00f" intaglio:omit="yes" d="M411.549,232.125 L414.799,224 L418.049,232.125"/><path fill="#00f" intaglio:omit="yes" d="M418.049,388.675 L414.799,396.8 L411.549,388.675"/></g><g><path fill="none" intaglio:arrow-start="1" intaglio:arrow-end="1" stroke="#00f" stroke-width="0.25" d="M313.009,259.481 L313.009,231.719" intaglio:d="M313.009,267.2 L313.009,224"/><path fill="#00f" intaglio:omit="yes" d="M316.259,259.075 L313.009,267.2 L309.759,259.075"/><path fill="#00f" intaglio:omit="yes" d="M309.759,232.125 L313.009,224 L316.259,232.125"/></g><g><path fill="none" intaglio:arrow-start="1" intaglio:arrow-end="1" stroke="#00f" stroke-width="0.25" d="M349,152.369 L349,259.331" intaglio:d="M349,144.65 L349,267.05"/><path fill="#00f" intaglio:omit="yes" d="M345.75,152.775 L349,144.65 L352.25,152.775"/><path fill="#00f" intaglio:omit="yes" d="M352.25,258.925 L349,267.05 L345.75,258.925"/></g><g><path fill="none" stroke="#000" stroke-width="0.999977" d="M248.209,144.65 L334.609,144.65 L334.609,267.05 L248.209,267.05 L248.209,144.65 Z"/><path fill="none" stroke="#000" stroke-width="0.999977" stroke-dasharray="1.99995" d="M250.909,144.65 L331.909,144.65 L331.909,267.05 L250.909,267.05 L250.909,144.65 Z"/></g><path fill="none" stroke="#000" d="M207.259,231.144 L375.559,230.956"/><path fill="none" stroke="#000" d="M207.259,313.944 L375.559,313.756"/><path fill="none" stroke="#000" d="M211.159,394.35 L373.159,394.35"/><path fill="none" stroke="#000" d="M372.409,224 L210.409,224"/><path fill="none" stroke="#000" d="M210.409,224 L210.315,228.993 L207.259,231.144 L210.315,233.107 L210.315,311.793 L207.259,313.944 L210.815,315.918 L210.409,396.65 L372.409,396.5 L372.909,315.918 L375.559,313.756 L372.409,311.793 L372.409,233.107 L375.559,230.956 L372.409,228.993 L372.409,224 Z"/><path fill="#fffffe" stroke="#000" d="M335.475,146.15 C335.475,146.15,335.056,145.392,335.056,145.392 C335.056,145.392,334.609,144.65,334.609,144.65 C334.609,144.65,335.475,144.666,335.475,144.666 C335.475,144.666,336.341,144.65,336.341,144.65 C336.341,144.65,335.894,145.392,335.894,145.392 C335.894,145.392,335.475,146.15,335.475,146.15 Z"/><path fill="#fffffe" stroke="#000" d="M248.209,144.646 C248.209,144.646,247.769,145.392,247.769,145.392 C247.769,145.392,247.357,146.154,247.357,146.154 C247.357,146.154,246.931,145.4,246.931,145.4 C246.931,145.4,246.477,144.662,246.477,144.662 C246.477,144.662,247.343,144.67,247.343,144.67 C247.343,144.67,248.209,144.646,248.209,144.646 Z"/><pattern id="6000002d9590" xlink:href="#600000ea0f70" patternTransform="matrix(1,0,0,1,0,107)"/><path fill="url(#6000002d9590)" stroke="#000" d="M731.375,396.65 L8,396.65 L160.5,432.5 Z"/><text fill="#000100" font-family="Times New Roman" font-size="10" transform="matrix(1,0,0,1,42.8846,313.743)" xml:space="preserve"><tspan>55 gal drum torch cut</tspan></text><text fill="#000100" font-family="Times New Roman" font-size="10" transform="matrix(1,0,0,1,41.1912,230.943)" xml:space="preserve"><tspan>12"x12"x0.25" steel square tubing</tspan></text><text fill="#000100" font-family="Times New Roman" font-size="10" transform="matrix(1,0,0,1,42.0262,178.252)" xml:space="preserve"><tspan>Steel square tubing welded to bottom</tspan><tspan x="0" y="12">of steel table top</tspan></text><g><path fill="none" intaglio:arrow-end="1" stroke="#000" stroke-width="0.25" d="M134.5,311.208 L203.221,284.313" intaglio:d="M134.5,311.208 L210.409,281.5"/><path intaglio:omit="yes" d="M201.658,281.435 L210.409,281.5 L204.027,287.488"/></g><g><path fill="none" intaglio:arrow-end="1" stroke="#000" stroke-width="0.25" d="M180.5,229.208 L240.155,205.861" intaglio:d="M180.5,229.208 L247.343,203.048"/><path intaglio:omit="yes" d="M238.592,202.983 L247.343,203.048 L240.961,209.036"/></g><g><path fill="none" intaglio:arrow-end="1" stroke="#000" stroke-width="0.25" d="M193,176.708 L240.655,149.253" intaglio:d="M193,176.708 L247.343,145.4"/><path intaglio:omit="yes" d="M238.68,146.64 L247.343,145.4 L241.925,152.272"/></g></svg>
