<?xml version="1.0" encoding="UTF-8" standalone="no"?>
<!DOCTYPE svg PUBLIC "-//W3C//DTD SVG 1.1//EN" "http://www.w3.org/Graphics/SVG/1.1/DTD/svg11.dtd">
<!--Generated by Intaglio, www.PurgatoryDesign.com-->
<svg version="1.1" viewBox="0,0,734,576" width="734" height="576" xmlns="http://www.w3.org/2000/svg" xmlns:xlink="http://www.w3.org/1999/xlink" xmlns:intaglio="http://purgatorydesign.com/namespaces/intaglio" intaglio:grid="36,36,1,1,0.5,#9999bf,1,0,0,0" intaglio:guides="0.8,#f0f,1,1"><g><path fill="none" stroke="#000100" d="M352,471 C342.887,490.882,325.65,494.912,313.5,480 C311.415,477.442,309.563,474.411,308,471 L308,233 C317.113,213.118,334.35,209.088,346.5,224 C348.585,226.558,350.437,229.589,352,233"/><path fill="none" stroke="#000100" d="M352,471 L352,233"/></g><g><path fill="#93ffe6" stroke="#000100" stroke-width="1.61537" d="M78.0354,356 C65.8449,346.857,63.3743,329.563,72.5172,317.372 C74.0859,315.281,75.9439,313.423,78.0354,311.854 L223.962,311.854 C236.152,320.997,238.623,338.291,229.48,350.482 C227.911,352.573,226.054,354.431,223.962,356"/><path fill="#93ffe6" stroke="#000100" stroke-width="1.61537" d="M78.0354,356 L223.962,356"/></g><g><path fill="none" stroke="#000100" stroke-width="1.29234" d="M476.646,476.861 C464.634,501.314,441.912,506.27,425.896,487.93 C423.148,484.784,420.707,481.057,418.646,476.861 L418.646,184.142 C430.658,159.688,453.38,154.732,469.396,173.072 C472.144,176.219,474.585,179.946,476.646,184.142"/><path fill="none" stroke="#000100" stroke-width="1.29234" d="M476.646,476.861 L476.646,184.142"/></g><g><path fill="none" stroke="#000100" stroke-width="0.720799" d="M568,207.047 C558.887,215.827,541.65,217.607,529.5,211.022 C527.415,209.892,525.563,208.554,524,207.047 L524,101.947 C533.113,93.1673,550.35,91.388,562.5,97.9729 C564.585,99.1027,566.437,100.441,568,101.947"/><path fill="none" stroke="#000100" stroke-width="0.720799" d="M568,207.047 L568,101.947"/></g><text fill="#000100" font-family="Times New Roman" font-size="18" transform="matrix(1,0,0,1,105.3,328.234)" xml:space="preserve"><tspan>Treater Feed</tspan><tspan x="0" y="20">Surge Drum</tspan></text><g><path fill="none" intaglio:arrow-end="1" stroke="#000100" stroke-width="2" d="M99,207 L99,299.979" intaglio:d="M99,207 L99,311.854"/><path fill="#000100" intaglio:omit="yes" d="M104,299.354 L99,311.854 L94,299.354"/></g><text fill="#000100" font-family="Times New Roman" font-size="18" transform="matrix(1,0,0,1,81.3384,197)" xml:space="preserve"><tspan>Feed</tspan></text><path fill="none" stroke="#000100" stroke-width="2" d="M196.153,356 L196.153,438"/><g><path fill="none" intaglio:arrow-end="1" stroke="#000100" d="M196.153,438 L298.5,438" intaglio:d="M196.153,438 L308,438"/><path fill="#000100" intaglio:omit="yes" d="M298,434 L308,438 L298,442"/></g><path fill="none" stroke="#000100" d="M330,214.997 L330,190.874"/><g><path fill="none" intaglio:arrow-end="1" stroke="#000100" d="M330,190.874 L371.5,190.874" intaglio:d="M330,190.874 L381,190.874"/><path fill="#000100" intaglio:omit="yes" d="M371,186.874 L381,190.874 L371,194.874"/></g><path fill="none" stroke="#000100" d="M381,190.874 L381,456"/><g><path fill="none" intaglio:arrow-end="1" stroke="#000100" d="M381,456 L409.146,456" intaglio:d="M381,456 L418.646,456"/><path fill="#000100" intaglio:omit="yes" d="M408.646,452 L418.646,456 L408.646,460"/></g><path fill="none" stroke="#000100" d="M447.646,162 L447.646,141"/><g><path fill="none" intaglio:arrow-end="1" stroke="#000100" d="M447.646,141 L514.5,141" intaglio:d="M447.646,141 L524,141"/><path fill="#000100" intaglio:omit="yes" d="M514,137 L524,141 L514,145"/></g><text fill="#000100" font-family="Times New Roman" font-size="18" transform="matrix(0,-1,1,0,336.113,412.007)" xml:space="preserve"><tspan>Caustic Prewash</tspan></text><text fill="#000100" font-family="Times New Roman" font-size="18" transform="matrix(0,-1,1,0,451.68,411.656)" xml:space="preserve"><tspan>Mercaptan Extractor</tspan></text><text fill="#000100" font-family="Times New Roman" font-size="18" transform="matrix(0,-1,1,0,552.113,194.866)" xml:space="preserve"><tspan>Sand Filter</tspan></text><path fill="none" stroke="#000100" d="M546,93.9974 L546,68"/><g><path fill="none" intaglio:arrow-end="1" stroke="#000100" d="M546,68 L642.5,68" intaglio:d="M546,68 L652,68"/><path fill="#000100" intaglio:omit="yes" d="M642,64 L652,68 L642,72"/></g><text fill="#000100" font-family="Times New Roman" font-size="18" transform="matrix(1,0,0,1,578.804,87.1115)" xml:space="preserve"><tspan>Sweetened Feed</tspan></text></svg>
