<?xml version="1.0" encoding="UTF-8" standalone="no"?>
<!DOCTYPE svg PUBLIC "-//W3C//DTD SVG 1.1//EN" "http://www.w3.org/Graphics/SVG/1.1/DTD/svg11.dtd">
<!--Generated by Intaglio, www.PurgatoryDesign.com-->
<svg version="1.1" viewBox="0,0,734,576" width="734" height="576" xmlns="http://www.w3.org/2000/svg" xmlns:xlink="http://www.w3.org/1999/xlink" xmlns:intaglio="http://purgatorydesign.com/namespaces/intaglio" intaglio:grid="36,36,1,1,0.5,#9999bf,1,0,0,0" intaglio:guides="0.8,#f0f,1,1"><path fill="none" stroke="#000100" d="M51,115 L611,115 L611,539 L51,539 L51,115 Z"/><path fill="#fffffe" stroke="#000100" d="M235.926,522.498 L418.646,522.498 L418.646,555 L235.926,555 L235.926,522.498 Z"/><g><path fill="none" stroke="#000100" d="M352,471 C342.887,490.882,325.65,494.912,313.5,480 C311.415,477.442,309.563,474.411,308,471 L308,233 C317.113,213.118,334.35,209.088,346.5,224 C348.585,226.558,350.437,229.589,352,233"/><path fill="none" stroke="#000100" d="M352,471 L352,233"/></g><g><path fill="#93ffe6" stroke="#000100" stroke-width="1.61537" d="M78.0354,356 C65.8449,346.857,63.3743,329.563,72.5172,317.372 C74.0859,315.281,75.9439,313.423,78.0354,311.854 L223.962,311.854 C236.152,320.997,238.623,338.291,229.48,350.482 C227.911,352.573,226.054,354.431,223.962,356"/><path fill="#93ffe6" stroke="#000100" stroke-width="1.61537" d="M78.0354,356 L223.962,356"/></g><g><path fill="none" stroke="#000100" stroke-width="1.29234" d="M476.646,476.861 C464.634,501.314,441.912,506.27,425.896,487.93 C423.148,484.784,420.707,481.057,418.646,476.861 L418.646,184.142 C430.658,159.688,453.38,154.732,469.396,173.072 C472.144,176.219,474.585,179.946,476.646,184.142"/><path fill="none" stroke="#000100" stroke-width="1.29234" d="M476.646,476.861 L476.646,184.142"/></g><g><path fill="none" stroke="#000100" stroke-width="0.720799" d="M580,280.047 C570.887,288.827,553.65,290.607,541.5,284.022 C539.415,282.892,537.563,281.554,536,280.047 L536,174.947 C545.113,166.167,562.35,164.388,574.5,170.973 C576.585,172.103,578.437,173.441,580,174.947"/><path fill="none" stroke="#000100" stroke-width="0.720799" d="M580,280.047 L580,174.947"/></g><text fill="#000100" font-family="Times New Roman" font-size="18" transform="matrix(1,0,0,1,105.3,328.234)" xml:space="preserve"><tspan>Treater Feed</tspan><tspan x="0" y="20">Surge Drum</tspan></text><g><path fill="none" intaglio:arrow-end="1" stroke="#000100" stroke-width="3" d="M99,93.9974 L99,297.604" intaglio:d="M99,93.9974 L99,311.854"/><path fill="#000100" intaglio:omit="yes" d="M105,296.854 L99,311.854 L93,296.854"/></g><text fill="#000100" font-family="Times New Roman" font-size="18" transform="matrix(1,0,0,1,66.7074,38.498)" xml:space="preserve"><tspan>Feed from the</tspan><tspan x="0" y="20">fluid catalytic</tspan><tspan x="0" y="40">cracker</tspan></text><path fill="none" stroke="#000100" stroke-width="2" d="M196.153,356 L196.153,438"/><g><path fill="none" intaglio:arrow-end="1" stroke="#000100" d="M196.153,438 L298.5,438" intaglio:d="M196.153,438 L308,438"/><path fill="#000100" intaglio:omit="yes" d="M298,434 L308,438 L298,442"/></g><path fill="none" stroke="#000100" d="M330,214.997 L330,190.874"/><g><path fill="none" intaglio:arrow-end="1" stroke="#000100" d="M330,190.874 L371.5,190.874" intaglio:d="M330,190.874 L381,190.874"/><path fill="#000100" intaglio:omit="yes" d="M371,186.874 L381,190.874 L371,194.874"/></g><path fill="none" stroke="#000100" d="M381,190.874 L381,456"/><g><path fill="none" intaglio:arrow-end="1" stroke="#000100" d="M381,456 L409.146,456" intaglio:d="M381,456 L418.646,456"/><path fill="#000100" intaglio:omit="yes" d="M408.646,452 L418.646,456 L408.646,460"/></g><path fill="none" stroke="#000100" d="M447.646,162 L447.646,141"/><g><path fill="none" intaglio:arrow-end="1" stroke="#000100" d="M558,319.11 L558,297.497" intaglio:d="M558,319.11 L558,287.997"/><path fill="#000100" intaglio:omit="yes" d="M554,297.997 L558,287.997 L562,297.997"/></g><text fill="#000100" font-family="Times New Roman" font-size="18" transform="matrix(0,-1,1,0,336.113,412.007)" xml:space="preserve"><tspan>Caustic Prewash</tspan></text><text fill="#000100" font-family="Times New Roman" font-size="18" transform="matrix(0,-1,1,0,451.68,411.656)" xml:space="preserve"><tspan>Mercaptan Extractor</tspan></text><text fill="#000100" font-family="Times New Roman" font-size="18" transform="matrix(0,-1,1,0,564.113,267.866)" xml:space="preserve"><tspan>Sand Filter</tspan></text><path fill="none" stroke="#000100" stroke-width="3" d="M558,166.997 L558,141"/><g><path fill="none" intaglio:arrow-end="1" stroke="#000100" stroke-width="3" d="M558,141 L649.75,141" intaglio:d="M558,141 L664,141"/><path fill="#000100" intaglio:omit="yes" d="M649,135 L664,141 L649,147"/></g><text fill="#000100" font-family="Times New Roman" font-size="18" transform="matrix(1,0,0,1,627.804,165.111)" xml:space="preserve"><tspan>Feed to the</tspan><tspan x="0" y="20">alkylation</tspan><tspan x="0" y="40">unit</tspan></text><g><path fill="none" intaglio:arrow-end="1" stroke="#000100" d="M447.646,141 L498.5,141" intaglio:d="M447.646,141 L508,141"/><path fill="#000100" intaglio:omit="yes" d="M498,137 L508,141 L498,145"/></g><path fill="none" stroke="#000100" d="M508,141 L508,319.11"/><path fill="none" stroke="#000100" d="M508,319.11 L558,319.11"/><text fill="#000" font-family="Times New Roman" font-size="18" transform="matrix(1,0,0,1,240.168,543.056)" xml:space="preserve"><tspan>Alkylation Pretreatment</tspan></text></svg>
